<svg xmlns="http://www.w3.org/2000/svg" xmlns:xlink="http://www.w3.org/1999/xlink" version="1.1" width="449.37pt" height="172.94pt" viewBox="0 0 449.37 172.94">
<defs>
<clipPath id="clip_0">
<path transform="matrix(1,0,0,-1,0,172.94)" d="M0 0H449.37V172.939H0Z"/>
</clipPath>
</defs>
<g id="layer_1" data-name="Слой 1">
<g clip-path="url(#clip_0)">
<path transform="matrix(1,0,0,-1,338.6699,58.469804)" d="M0 0V-55.021H13.79V-11.29H40.24V-55.021H54.03V0ZM-113.07-45C-124.25-45-131.18-38.22-131.18-27.04-131.18-15.86-124.24-9.08-113.07-9.08-103.82-9.08-98.189-12.62-96.34-19.48H-81.08C-82.47-6.84-94.65 2.41-113.07 2.41-133.65 2.41-146.6-9.3-146.6-27.03-146.6-44.76-133.65-56.47-113.07-56.47-94.65-56.47-82.32-47.07-80.85-33.271H-96.189C-97.11-40.61-103.2-45-113.07-45M-253.55 2.4C-271.97 2.4-284.15-6.85-285.54-19.49H-270.28C-268.43-12.63-262.8-9.09-253.55-9.09-244.84-9.09-237.83-13.17-235.59-19.88H-258.79V-31.36H-235.36C-236.98-39.99-243.99-45-253.55-45-263.42-45-269.5-40.61-270.43-33.28H-285.77C-284.31-47.08-271.97-56.48-253.55-56.48-232.97-56.48-220.02-44.76-220.02-27.04-220.02-9.32-232.97 2.4-253.55 2.4" fill="#002d10"/>
<path transform="matrix(1,0,0,-1,224.79,27.3302)" d="M0 0C26.82 0 41.979-17.17 45.03-21 47.93-13.65 51.64-6.96 55.97-.93 46.42 8.26 27.71 21.71 .01 21.71-32.42 21.71-80.39-3.84-80.39-58.69-80.39-103.03-119.93-117.37-139.08-117.37-157.46-117.37-197.76-102.59-197.76-58.69-197.76-18.66-162.74 0-139.08 0-112.85 0-97.43-16.89-94.06-21.01-91.17-13.68-87.47-7-83.16-.98-92.76 8.18-111.61 21.72-139.09 21.72-177.76 21.72-219.49-9.02-219.49-58.68-219.49-113.53-171.51-139.08-139.09-139.08-105.7-139.08-58.69-114.14-58.69-58.68-58.68-18.65-23.66 0 0 0M139.09 21.71C105.7 21.71 58.69-3.23 58.69-58.69 58.69-101.439 22.69-117.37 0-117.37-26.35-117.37-41.48-100.7-44.85-96.53-47.7-103.93-51.36-110.649-55.63-116.7-46-125.87-27.38-139.08 0-139.08 33.39-139.08 80.4-114.14 80.4-58.68 80.4-14.34 119.94 .01 139.09 .01 157.47 .01 197.77-14.77 197.77-58.68 197.77-99.16 163.45-117.359 139.09-117.359 112.76-117.359 97.59-100.689 94.229-96.54 91.38-103.939 87.72-110.66 83.45-116.71 93.06-125.85 111.71-139.08 139.09-139.08 172.479-139.08 219.49-114.14 219.49-58.68 219.49-3.84 171.52 21.71 139.09 21.71" fill="#008c42"/>
</g>
</g>
</svg>
